<svg width="94" height="94" viewBox="0 0 94 94" fill="none" xmlns="http://www.w3.org/2000/svg">
<path d="M45.0418 78.3333C42.953 78.3333 41.0116 77.8111 39.2178 76.7667C37.4239 75.7222 35.9708 74.2861 34.8585 72.4583C34.1405 71.1528 34.1248 69.8472 34.8115 68.5417C35.4982 67.2361 36.5583 66.5833 37.9918 66.5833C38.8405 66.5833 39.5911 66.8445 40.2439 67.3667C40.8967 67.8889 41.4842 68.4764 42.0064 69.1292C42.3328 69.5861 42.7741 69.9295 43.3303 70.1593C43.8864 70.389 44.457 70.5026 45.0418 70.5C46.1516 70.5 47.0824 70.124 47.8344 69.372C48.5864 68.62 48.9611 67.6905 48.9585 66.5833C48.9559 65.4762 48.5799 64.5467 47.8305 63.7947C47.0811 63.0427 46.1516 62.6667 45.0418 62.6667H11.7502C10.6405 62.6667 9.7109 62.2907 8.96151 61.5387C8.21212 60.7867 7.83612 59.8571 7.83351 58.75C7.8309 57.6429 8.2069 56.7133 8.96151 55.9613C9.71612 55.2093 10.6457 54.8333 11.7502 54.8333H45.0418C48.3057 54.8333 51.08 55.9757 53.3648 58.2604C55.6495 60.5451 56.7918 63.3195 56.7918 66.5833C56.7918 69.8472 55.6495 72.6215 53.3648 74.9063C51.08 77.191 48.3057 78.3333 45.0418 78.3333ZM11.7502 39.1667C10.6405 39.1667 9.7109 38.7907 8.96151 38.0387C8.21212 37.2867 7.83612 36.3571 7.83351 35.25C7.8309 34.1429 8.2069 33.2133 8.96151 32.4613C9.71612 31.7093 10.6457 31.3333 11.7502 31.3333H60.7085C62.3405 31.3333 63.7283 30.7628 64.8719 29.6218C66.0156 28.4807 66.5861 27.0929 66.5835 25.4583C66.5809 23.8238 66.0104 22.4373 64.8719 21.2988C63.7335 20.1604 62.3457 19.5886 60.7085 19.5833C59.6641 19.5833 58.6849 19.8288 57.771 20.3197C56.8571 20.8106 56.1391 21.5116 55.6168 22.4229C55.1599 23.2063 54.605 23.9086 53.9523 24.5301C53.2995 25.1515 52.5162 25.4609 51.6023 25.4583C50.2967 25.4583 49.2366 24.9688 48.4219 23.9896C47.6073 23.0104 47.3945 21.966 47.7835 20.8563C48.6974 18.1146 50.3463 15.9121 52.7303 14.2488C55.1142 12.5856 57.7736 11.7526 60.7085 11.75C64.4946 11.75 67.7259 13.0882 70.4023 15.7646C73.0787 18.441 74.4168 21.6722 74.4168 25.4583C74.4168 29.2444 73.0787 32.4757 70.4023 35.1521C67.7259 37.8285 64.4946 39.1667 60.7085 39.1667H11.7502ZM78.1377 69.325C76.8321 69.9125 75.5592 69.8316 74.3189 69.0822C73.0787 68.3328 72.4585 67.2387 72.4585 65.8C72.4585 64.8861 72.7692 64.1198 73.3907 63.5009C74.0121 62.8821 74.7132 62.3429 75.4939 61.8833C76.4078 61.3611 77.1102 60.6431 77.6011 59.7292C78.092 58.8153 78.3361 57.8361 78.3335 56.7917C78.3335 55.1597 77.763 53.7732 76.6219 52.6322C75.4809 51.4911 74.0931 50.9193 72.4585 50.9167H11.7502C10.6405 50.9167 9.7109 50.5407 8.96151 49.7887C8.21212 49.0367 7.83612 48.1071 7.83351 47C7.8309 45.8929 8.2069 44.9633 8.96151 44.2113C9.71612 43.4593 10.6457 43.0833 11.7502 43.0833H72.4585C76.2446 43.0833 79.4759 44.4215 82.1523 47.0979C84.8287 49.7743 86.1668 53.0056 86.1668 56.7917C86.1668 59.5333 85.4488 62.0309 84.0127 64.2843C82.5766 66.5376 80.6182 68.2179 78.1377 69.325Z" fill="black"/>
</svg>
